<svg version="1.1" id="Layer_1" xmlns="http://www.w3.org/2000/svg" xmlns:xlink="http://www.w3.org/1999/xlink" x="0px" y="0px"
	 width="100%" viewBox="0 0 96 96" enable-background="new 0 0 96 96" xml:space="preserve">
<path fill="#000000" opacity="1.000000" stroke="none" 
	d="
M56.000000,97.000000 
	C37.333340,97.000000 19.166677,97.000000 1.000012,97.000000 
	C1.000008,65.000015 1.000008,33.000031 1.000004,1.000034 
	C32.999973,1.000022 64.999947,1.000022 96.999939,1.000011 
	C96.999962,32.999966 96.999962,64.999931 96.999985,96.999954 
	C83.500000,97.000000 70.000000,97.000000 56.000000,97.000000 
M39.957748,65.015892 
	C42.623222,65.010735 45.291370,64.925911 47.953659,65.015450 
	C55.730202,65.276993 58.732811,68.306206 58.988350,76.108704 
	C59.061825,78.352097 58.999611,80.599930 58.999611,82.613770 
	C64.791161,82.613770 69.857178,82.613770 74.999481,82.613770 
	C74.999481,78.230942 75.479195,74.158493 74.864601,70.258492 
	C74.249596,66.355896 73.321053,62.058224 71.085335,58.984482 
	C68.982353,56.093224 69.377647,54.472359 70.618355,51.655872 
	C77.674927,35.637066 70.374626,18.955177 54.168957,15.509632 
	C44.336689,13.419158 33.697407,15.124355 23.245815,15.124355 
	C23.245815,37.839630 23.245815,60.229172 23.245815,82.725281 
	C28.556988,82.725281 33.618649,82.725281 39.119461,82.725281 
	C39.119461,76.657707 39.119461,70.858673 39.039742,65.053658 
	C39.039742,65.053658 39.046856,65.133057 39.957748,65.015892 
z"/>
<path fill="#3DD9EB" opacity="1.000000" stroke="none" 
	d="
M39.119461,65.059639 
	C39.119461,70.858673 39.119461,76.657707 39.119461,82.725281 
	C33.618649,82.725281 28.556988,82.725281 23.245815,82.725281 
	C23.245815,60.229172 23.245815,37.839630 23.245815,15.124355 
	C33.697407,15.124355 44.336689,13.419158 54.168957,15.509632 
	C70.374626,18.955177 77.674927,35.637066 70.618355,51.655872 
	C69.377647,54.472359 68.982353,56.093224 71.085335,58.984482 
	C73.321053,62.058224 74.249596,66.355896 74.864601,70.258492 
	C75.479195,74.158493 74.999481,78.230942 74.999481,82.613770 
	C69.857178,82.613770 64.791161,82.613770 58.999611,82.613770 
	C58.999611,80.599930 59.061825,78.352097 58.988350,76.108704 
	C58.732811,68.306206 55.730202,65.276993 47.953659,65.015450 
	C45.291370,64.925911 42.623222,65.010735 39.489357,64.597862 
	C39.031590,59.077900 39.042221,53.975967 39.497036,48.929451 
	C43.345406,48.655880 46.836216,48.688698 50.130310,47.899948 
	C53.689842,47.047638 55.829594,44.712940 56.098152,40.585812 
	C56.382217,36.220432 54.326283,33.339130 50.761444,32.185867 
	C47.186638,31.029381 43.194031,31.164339 39.126030,30.704031 
	C39.126030,37.353565 39.126030,43.150383 38.671616,48.961712 
	C37.396881,48.984413 36.489998,48.768993 35.773849,49.046242 
	C34.166649,49.668465 31.333103,50.516861 31.322023,51.305809 
	C31.259781,55.736782 31.853552,60.181396 32.378712,64.602913 
	C32.404491,64.819977 33.882927,64.932281 34.691078,64.973900 
	C36.164772,65.049774 37.643078,65.036003 39.119461,65.059639 
z"/>
<path fill="#000000" opacity="1.000000" stroke="none" 
	d="
M39.126030,48.947201 
	C39.126030,43.150383 39.126030,37.353565 39.126030,30.704031 
	C43.194031,31.164339 47.186638,31.029381 50.761444,32.185867 
	C54.326283,33.339130 56.382217,36.220432 56.098152,40.585812 
	C55.829594,44.712940 53.689842,47.047638 50.130310,47.899948 
	C46.836216,48.688698 43.345406,48.655880 39.493576,48.969501 
	C39.045925,48.954140 39.126030,48.947201 39.126030,48.947201 
z"/>
<path fill="#00B3D7" opacity="1.000000" stroke="none" 
	d="
M39.049385,48.914085 
	C39.042221,53.975967 39.031590,59.077900 39.033909,64.656448 
	C39.046856,65.133057 39.039742,65.053658 39.079601,65.056648 
	C37.643078,65.036003 36.164772,65.049774 34.691078,64.973900 
	C33.882927,64.932281 32.404491,64.819977 32.378712,64.602913 
	C31.853552,60.181396 31.259781,55.736782 31.322023,51.305809 
	C31.333103,50.516861 34.166649,49.668465 35.773849,49.046242 
	C36.489998,48.768993 37.396881,48.984413 38.671616,48.961712 
	C39.126030,48.947201 39.045925,48.954140 39.049385,48.914085 
z"/>
</svg>